<?xml version="1.0" encoding="UTF-8" standalone="no"?>
<!-- Created with Inkscape (http://www.inkscape.org/) -->

<svg
   xmlns:dc="http://purl.org/dc/elements/1.1/"
   xmlns:cc="http://creativecommons.org/ns#"
   xmlns:rdf="http://www.w3.org/1999/02/22-rdf-syntax-ns#"
   xmlns:svg="http://www.w3.org/2000/svg"
   xmlns="http://www.w3.org/2000/svg"
   xmlns:xlink="http://www.w3.org/1999/xlink"
   xmlns:sodipodi="http://sodipodi.sourceforge.net/DTD/sodipodi-0.dtd"
   xmlns:inkscape="http://www.inkscape.org/namespaces/inkscape"
   version="1.0"
   width="512"
   height="512"
   id="svg2"
   sodipodi:version="0.32"
   inkscape:version="0.47 r22583"
   sodipodi:docname="minitunes.svg"
   inkscape:output_extension="org.inkscape.output.svg.inkscape"
   inkscape:export-filename="/home/flavio/projects/minitunes/images/app.png"
   inkscape:export-xdpi="22.5"
   inkscape:export-ydpi="22.5">
  <metadata
     id="metadata13">
    <rdf:RDF>
      <cc:Work
         rdf:about="">
        <dc:format>image/svg+xml</dc:format>
        <dc:type
           rdf:resource="http://purl.org/dc/dcmitype/StillImage" />
        <dc:title />
      </cc:Work>
    </rdf:RDF>
  </metadata>
  <sodipodi:namedview
     inkscape:window-height="776"
     inkscape:window-width="1280"
     inkscape:pageshadow="2"
     inkscape:pageopacity="0.0"
     guidetolerance="10.0"
     gridtolerance="10.0"
     objecttolerance="10.0"
     borderopacity="1.0"
     bordercolor="#666666"
     pagecolor="#ffffff"
     id="base"
     showgrid="false"
     inkscape:zoom="1.1074219"
     inkscape:cx="256"
     inkscape:cy="256"
     inkscape:window-x="0"
     inkscape:window-y="24"
     inkscape:current-layer="svg2"
     showborder="true"
     inkscape:showpageshadow="false"
     inkscape:window-maximized="1">
    <inkscape:grid
       type="xygrid"
       id="grid3854"
       visible="true"
       enabled="true" />
  </sodipodi:namedview>
  <defs
     id="defs5">
    <linearGradient
       id="linearGradient3606">
      <stop
         style="stop-color:#392b1b;stop-opacity:1;"
         offset="0"
         id="stop3608" />
      <stop
         style="stop-color:#ac8251;stop-opacity:1;"
         offset="1"
         id="stop3610" />
    </linearGradient>
    <linearGradient
       id="linearGradient3598">
      <stop
         style="stop-color:#000000;stop-opacity:1;"
         offset="0"
         id="stop3600" />
      <stop
         style="stop-color:#000000;stop-opacity:0;"
         offset="1"
         id="stop3602" />
    </linearGradient>
    <inkscape:perspective
       sodipodi:type="inkscape:persp3d"
       inkscape:vp_x="0 : 256 : 1"
       inkscape:vp_y="0 : 1000 : 0"
       inkscape:vp_z="512 : 256 : 1"
       inkscape:persp3d-origin="256 : 170.66667 : 1"
       id="perspective21" />
    <linearGradient
       inkscape:collect="always"
       id="linearGradient3836">
      <stop
         style="stop-color:#000000;stop-opacity:1;"
         offset="0"
         id="stop3838" />
      <stop
         style="stop-color:#000000;stop-opacity:0;"
         offset="1"
         id="stop3840" />
    </linearGradient>
    <linearGradient
       id="linearGradient3812">
      <stop
         style="stop-color:#ffffff;stop-opacity:1;"
         offset="0"
         id="stop3814" />
      <stop
         style="stop-color:#c2d1dd;stop-opacity:1;"
         offset="1"
         id="stop3816" />
    </linearGradient>
    <linearGradient
       id="linearGradient3293">
      <stop
         style="stop-color:#3577e4;stop-opacity:1;"
         offset="0"
         id="stop3295" />
      <stop
         style="stop-color:#093887;stop-opacity:1;"
         offset="1"
         id="stop3297" />
    </linearGradient>
    <radialGradient
       inkscape:collect="always"
       xlink:href="#linearGradient3836"
       id="radialGradient3842"
       cx="256"
       cy="256"
       fx="256"
       fy="256"
       r="181.37268"
       gradientTransform="matrix(0.8291117,0,0,0.9679429,43.747415,8.2066349)"
       gradientUnits="userSpaceOnUse" />
    <radialGradient
       inkscape:collect="always"
       xlink:href="#linearGradient3812"
       id="radialGradient3852"
       gradientUnits="userSpaceOnUse"
       gradientTransform="matrix(0.8291117,0,0,0.9679429,43.747415,8.2066349)"
       cx="256"
       cy="256"
       fx="256"
       fy="256"
       r="181.37268" />
    <linearGradient
       inkscape:collect="always"
       xlink:href="#linearGradient3598"
       id="linearGradient3604"
       x1="274.9133"
       y1="554.51752"
       x2="223.04799"
       y2="65.663177"
       gradientUnits="userSpaceOnUse" />
    <linearGradient
       inkscape:collect="always"
       xlink:href="#linearGradient3606"
       id="linearGradient3612"
       x1="274.9133"
       y1="554.51752"
       x2="223.04799"
       y2="65.663177"
       gradientUnits="userSpaceOnUse" />
    <filter
       inkscape:collect="always"
       id="filter3652">
      <feGaussianBlur
         inkscape:collect="always"
         stdDeviation="6.3529095"
         id="feGaussianBlur3654" />
    </filter>
    <radialGradient
       inkscape:collect="always"
       xlink:href="#linearGradient3812"
       id="radialGradient3660"
       gradientUnits="userSpaceOnUse"
       gradientTransform="matrix(0.8291117,0,0,0.9679429,43.747415,8.2066349)"
       cx="256"
       cy="256"
       fx="256"
       fy="256"
       r="181.37268" />
    <radialGradient
       inkscape:collect="always"
       xlink:href="#linearGradient3836"
       id="radialGradient3662"
       gradientUnits="userSpaceOnUse"
       gradientTransform="matrix(0.8291117,0,0,0.9679429,43.747415,8.2066349)"
       cx="256"
       cy="256"
       fx="256"
       fy="256"
       r="181.37268" />
    <radialGradient
       inkscape:collect="always"
       xlink:href="#linearGradient3812"
       id="radialGradient3731"
       gradientUnits="userSpaceOnUse"
       gradientTransform="matrix(1.0243416,0,0,1.1958633,-6.2314427,-50.140972)"
       cx="256"
       cy="256"
       fx="256"
       fy="256"
       r="181.37268" />
    <radialGradient
       inkscape:collect="always"
       xlink:href="#linearGradient3836"
       id="radialGradient3733"
       gradientUnits="userSpaceOnUse"
       gradientTransform="matrix(1.0243416,0,0,1.1958633,-6.2314427,-50.140972)"
       cx="256"
       cy="256"
       fx="256"
       fy="256"
       r="181.37268" />
    <filter
       inkscape:collect="always"
       id="filter3736">
      <feGaussianBlur
         inkscape:collect="always"
         stdDeviation="3.1764547"
         id="feGaussianBlur3738" />
    </filter>
  </defs>
  <path
     id="path2858"
     d="m 385.73404,84.624655 c -62.62448,9.191516 -125.61696,15.891745 -188.15653,25.572915 -9.60785,4.95643 -9.34439,17.37673 -8.29112,26.63522 -0.38486,64.6702 -0.0819,129.34143 -0.18137,194.01212 -30.93672,-2.62452 -64.72291,13.39694 -76.90009,42.95836 -7.70825,19.30691 3.59973,43.60484 23.57786,49.66896 24.80476,9.53676 53.94284,0.92462 72.83227,-16.81542 13.31603,-13.08072 19.32293,-32.16587 17.95984,-50.60125 0.20111,-47.88057 -0.0487,-95.76231 0.12516,-143.64406 0,-9.15478 0,-18.30955 0,-27.46432 45.92932,-6.85745 91.85866,-13.7149 137.78799,-20.57234 -0.10595,43.4851 0.20404,86.9711 -0.15546,130.45554 -31.08007,-2.5477 -65.08498,13.69544 -76.97783,43.58017 -7.24852,19.23134 4.11632,43.18976 23.9406,49.12488 25.29485,9.55315 54.812,0.58161 73.63547,-17.82591 12.71969,-12.93419 18.21198,-31.52806 17.0301,-49.40934 0.38666,-43.20754 -0.31446,-86.41773 0.17082,-129.62691 0.0629,-32.55327 0.51034,-65.18334 -1.16279,-97.679769 -2.56469,-5.738732 -9.15736,-8.783755 -15.23492,-8.368846 z"
     style="opacity:0.80000000000000004;fill:#000000;fill-opacity:1;fill-rule:nonzero;stroke:#000000;stroke-width:7.43517017000000013;stroke-linecap:round;stroke-linejoin:round;stroke-miterlimit:4;stroke-opacity:1;stroke-dasharray:none;stroke-dashoffset:0;filter:url(#filter3736)"
     transform="matrix(1.2354688,0,0,1.2354688,-60.280009,-60.280013)" />
  <path
     style="fill:url(#radialGradient3731);fill-opacity:1;fill-rule:nonzero;stroke:url(#radialGradient3733);stroke-width:9.18592072;stroke-linecap:round;stroke-linejoin:round;stroke-miterlimit:4;stroke-opacity:0.50196078;stroke-dasharray:none;stroke-dashoffset:0"
     d="m 416.28236,44.271108 c -77.37059,11.355831 -155.19583,19.633755 -232.46152,31.594539 -11.8702,6.123514 -11.5447,21.468407 -10.24342,32.906983 -0.47548,79.89801 -0.10118,159.7973 -0.22408,239.69592 -38.22135,-3.24251 -79.963133,16.5515 -95.007659,53.07371 -9.523302,23.85309 4.447354,53.87242 29.129709,61.36445 30.64551,11.78237 66.6447,1.14234 89.982,-20.77492 16.45154,-16.16082 23.87288,-39.73993 22.18882,-62.51627 0.24847,-59.15495 -0.0602,-118.31134 0.15463,-177.46775 0,-11.31045 0,-22.62088 0,-33.93131 56.74424,-8.47217 113.48851,-16.94433 170.23276,-25.41649 -0.13089,53.72449 0.25209,107.45008 -0.19206,161.17375 -38.39846,-3.1476 -80.41046,16.92029 -95.10371,53.84194 -8.95532,23.75972 5.08559,53.3596 29.57787,60.69226 31.25099,11.80262 67.71851,0.71856 90.97432,-22.02336 15.71478,-15.97978 22.50033,-38.95193 21.04016,-61.04369 0.47771,-53.38157 -0.38851,-106.76641 0.21104,-160.15001 0.0777,-40.21855 0.63051,-80.53198 -1.43659,-120.680304 C 431.93604,47.520532 423.791,43.758501 416.28236,44.271108 z"
     id="path3441" />
</svg>
