<?xml version="1.0" encoding="UTF-8" standalone="no"?>
<svg
   width="1024"
   height="1024"
   version="1.1"
   id="svg229"
   sodipodi:docname="mac.svg"
   inkscape:version="1.1.2 (0a00cf5339, 2022-02-04)"
   xmlns:inkscape="http://www.inkscape.org/namespaces/inkscape"
   xmlns:sodipodi="http://sodipodi.sourceforge.net/DTD/sodipodi-0.dtd"
   xmlns="http://www.w3.org/2000/svg"
   xmlns:svg="http://www.w3.org/2000/svg">
  <sodipodi:namedview
     id="namedview231"
     pagecolor="#ffffff"
     bordercolor="#666666"
     borderopacity="1.0"
     inkscape:showpageshadow="2"
     inkscape:pageopacity="0.0"
     inkscape:pagecheckerboard="0"
     inkscape:deskcolor="#d1d1d1"
     showgrid="false"
     inkscape:zoom="1.2089844"
     inkscape:cx="470.64297"
     inkscape:cy="524.40711"
     inkscape:window-width="2560"
     inkscape:window-height="1376"
     inkscape:window-x="0"
     inkscape:window-y="0"
     inkscape:window-maximized="1"
     inkscape:current-layer="svg229"
     inkscape:pageshadow="2" />
  <defs
     id="defs223">
    <filter
       id="blur_shadow"
       x="-0.034951456"
       y="-0.034951456"
       width="1.0699029"
       height="1.0699029">
      <feGaussianBlur
         stdDeviation="12"
         id="feGaussianBlur220" />
    </filter>
    <filter
       inkscape:collect="always"
       style="color-interpolation-filters:sRGB"
       id="filter4754"
       x="-0.035214793"
       y="-0.027242752"
       width="1.0704296"
       height="1.0544855">
      <feGaussianBlur
         inkscape:collect="always"
         stdDeviation="0.76973517"
         id="feGaussianBlur4756" />
    </filter>
  </defs>
  <path
     d="M924 355.412c0-9.782 0-18.35-.056-28.133-.049-8.241-.144-16.48-.368-24.716-.484-17.954-1.543-36.061-4.736-53.813-3.238-18.01-8.526-34.77-16.859-51.133a171.963 171.963 0 00-31.661-43.559 172.06 172.06 0 00-43.574-31.64c-16.381-8.335-33.159-13.621-51.188-16.858-17.755-3.188-35.867-4.245-53.82-4.73-8.243-.223-16.485-.317-24.73-.368-9.788-.06-19.576-.055-29.364-.055L553.997 100h-84.999l-111.637.407c-9.807 0-19.614-.005-29.421.055-8.262.051-16.52.145-24.778.368-17.995.485-36.148 1.543-53.945 4.735-18.053 3.236-34.857 8.52-51.259 16.849a172.405 172.405 0 00-43.667 31.644 171.994 171.994 0 00-31.718 43.551c-8.356 16.372-13.654 33.143-16.9 51.162-3.196 17.746-4.255 35.846-4.742 53.792-.222 8.237-.318 16.476-.368 24.716-.06 9.784-.563 21.937-.563 31.72v195.999l.508 112.429c0 9.796-.004 19.592.055 29.388.05 8.252.146 16.502.369 24.751.486 17.976 1.547 36.109 4.746 53.886 3.245 18.032 8.542 34.818 16.891 51.201a172.24 172.24 0 0031.722 43.619 172.444 172.444 0 0043.659 31.684c16.412 8.346 33.224 13.639 51.288 16.88 17.789 3.193 35.936 4.252 53.924 4.737 8.258.223 16.517.318 24.779.368 9.807.059 19.613.059 29.42.059h310.283c9.788 0 19.576 0 29.364-.059 8.245-.05 16.487-.145 24.73-.368 17.96-.486 36.078-1.546 53.841-4.741 18.018-3.241 34.788-8.532 51.159-16.873a172.004 172.004 0 0043.582-31.687 172.23 172.23 0 0031.659-43.612c8.337-16.391 13.625-33.184 16.865-51.229 3.19-17.77 4.248-35.896 4.733-53.865.223-8.25.318-16.5.367-24.751.056-9.796.056-19.592.056-29.388V355.412z"
     fill="rgba(0,0,0,0.3)"
     filter="url(#blur_shadow)"
     transform="translate(0 10)"
     id="path225" />
  <path
     d="M924 355.412c0-9.782 0-18.35-.056-28.133-.049-8.241-.144-16.48-.368-24.716-.484-17.954-1.543-36.061-4.736-53.813-3.238-18.01-8.526-34.77-16.859-51.133a171.963 171.963 0 00-31.661-43.559 172.06 172.06 0 00-43.574-31.64c-16.381-8.335-33.159-13.621-51.188-16.858-17.755-3.188-35.867-4.245-53.82-4.73-8.243-.223-16.485-.317-24.73-.368-9.788-.06-19.576-.055-29.364-.055L553.997 100h-84.999l-111.637.407c-9.807 0-19.614-.005-29.421.055-8.262.051-16.52.145-24.778.368-17.995.485-36.148 1.543-53.945 4.735-18.053 3.236-34.857 8.52-51.259 16.849a172.405 172.405 0 00-43.667 31.644 171.994 171.994 0 00-31.718 43.551c-8.356 16.372-13.654 33.143-16.9 51.162-3.196 17.746-4.255 35.846-4.742 53.792-.222 8.237-.318 16.476-.368 24.716-.06 9.784-.563 21.937-.563 31.72v195.999l.508 112.429c0 9.796-.004 19.592.055 29.388.05 8.252.146 16.502.369 24.751.486 17.976 1.547 36.109 4.746 53.886 3.245 18.032 8.542 34.818 16.891 51.201a172.24 172.24 0 0031.722 43.619 172.444 172.444 0 0043.659 31.684c16.412 8.346 33.224 13.639 51.288 16.88 17.789 3.193 35.936 4.252 53.924 4.737 8.258.223 16.517.318 24.779.368 9.807.059 19.613.059 29.42.059h310.283c9.788 0 19.576 0 29.364-.059 8.245-.05 16.487-.145 24.73-.368 17.96-.486 36.078-1.546 53.841-4.741 18.018-3.241 34.788-8.532 51.159-16.873a172.004 172.004 0 0043.582-31.687 172.23 172.23 0 0031.659-43.612c8.337-16.391 13.625-33.184 16.865-51.229 3.19-17.77 4.248-35.896 4.733-53.865.223-8.25.318-16.5.367-24.751.056-9.796.056-19.592.056-29.388V355.412z"
     fill="#fff"
     id="path227" />
  <g
     id="Ultralight-S-0"
     transform="matrix(9.7598364,0,0,9.7598364,160.68915,822.26799)"
     style="mix-blend-mode:normal;fill:#000000;fill-opacity:1;stroke-width:0.102461;filter:url(#filter4754)">
    <path
       id="path125-3"
       style="fill:#000000;fill-opacity:1;stroke-width:0.102461"
       d="m 60.539654,-65.859983 c -0.31515,-0.06332 -0.654343,-0.05295 -1.023877,0.03072 l -27.921111,4.853174 c -1.642398,0.3738 -2.467542,1.321459 -2.467542,2.841257 l 0.230372,35.589946 c 0.01627,2.489264 -1.112861,3.958669 -3.378792,4.402669 l -6.010155,1.269606 c -3.421529,0.725333 -5.978703,1.921956 -7.668835,3.588687 -1.690185,1.666799 -2.5340938,3.811106 -2.5340938,6.4401834 0,2.6011107 0.8915998,4.7108868 2.6723178,6.32755652 1.780665,1.61666708 4.085288,2.42658718 6.916285,2.42658718 1.766998,0 3.64359,-0.4525545 5.631321,-1.35663628 1.987665,-0.90408242 3.680161,-2.37636892 5.078427,-4.41290752 1.398199,-2.036538 2.098947,-4.7737254 2.098947,-8.2166083 v -28.156603 c 0,-1.218665 0.203659,-2.096029 0.614326,-2.631362 0.410732,-0.535333 1.209219,-0.929311 2.390751,-1.182578 l 24.112291,-4.213251 0.127984,20.472409 c 0.01627,2.489265 -1.107742,3.95867 -3.373673,4.402669 l -6.010154,1.269607 c -3.42153,0.725332 -5.978704,1.921956 -7.668835,3.588687 -1.690185,1.666798 -2.534094,3.811106 -2.534094,6.440183 0,2.6011106 0.88648,4.7108868 2.667198,6.3275564 1.780665,1.6166671 4.090408,2.4265873 6.921405,2.4265873 1.766998,0 3.643589,-0.4525546 5.63132,-1.3566364 1.987665,-0.9040824 3.680162,-2.3763688 5.078427,-4.4129075 1.398199,-2.0365378 2.093828,-4.7737258 2.093828,-8.2166088 0.03731,-15.454446 -0.0256,-30.959598 -0.0256,-46.345768 0,-0.771532 -0.261666,-1.365998 -0.783266,-1.786664 -0.260766,-0.2103 -0.550025,-0.346234 -0.865175,-0.409551 z"
       sodipodi:nodetypes="sccccccsscsccssccccccsscsccccss" />
  </g>
  <g
     id="Ultralight-S"
     transform="matrix(9.7598364,0,0,9.7598364,160.68914,824.268)"
     style="stroke-width:0.102461;fill:#0096dc;fill-opacity:1">
    <path
       id="path125"
       style="stroke-width:0.102461;fill:#0096dc;fill-opacity:1"
       d="m 60.539654,-65.859983 c -0.31515,-0.06332 -0.654343,-0.05295 -1.023877,0.03072 l -27.921111,4.853174 c -1.642398,0.3738 -2.467542,1.321459 -2.467542,2.841257 l 0.230372,35.589946 c 0.01627,2.489264 -1.112861,3.958669 -3.378792,4.402669 l -6.010155,1.269606 c -3.421529,0.725333 -5.978703,1.921956 -7.668835,3.588687 -1.690185,1.666799 -2.5340938,3.811106 -2.5340938,6.4401834 0,2.6011107 0.8915998,4.7108868 2.6723178,6.32755652 1.780665,1.61666708 4.085288,2.42658718 6.916285,2.42658718 1.766998,0 3.64359,-0.4525545 5.631321,-1.35663628 1.987665,-0.90408242 3.680161,-2.37636892 5.078427,-4.41290752 1.398199,-2.036538 2.098947,-4.7737254 2.098947,-8.2166083 v -28.156603 c 0,-1.218665 0.203659,-2.096029 0.614326,-2.631362 0.410732,-0.535333 1.209219,-0.929311 2.390751,-1.182578 l 24.112291,-4.213251 0.127984,20.472409 c 0.01627,2.489265 -1.107742,3.95867 -3.373673,4.402669 l -6.010154,1.269607 c -3.42153,0.725332 -5.978704,1.921956 -7.668835,3.588687 -1.690185,1.666798 -2.534094,3.811106 -2.534094,6.440183 0,2.6011106 0.88648,4.7108868 2.667198,6.3275564 1.780665,1.6166671 4.090408,2.4265873 6.921405,2.4265873 1.766998,0 3.643589,-0.4525546 5.63132,-1.3566364 1.987665,-0.9040824 3.680162,-2.3763688 5.078427,-4.4129075 1.398199,-2.0365378 2.093828,-4.7737258 2.093828,-8.2166088 0.03731,-15.454446 -0.0256,-30.959598 -0.0256,-46.345768 0,-0.771532 -0.261666,-1.365998 -0.783266,-1.786664 -0.260766,-0.2103 -0.550025,-0.346234 -0.865175,-0.409551 z"
       sodipodi:nodetypes="sccccccsscsccssccccccsscsccccss" />
  </g>
</svg>
