<?xml version="1.0" encoding="UTF-8" standalone="no"?>
<!-- Created with Inkscape (http://www.inkscape.org/) -->

<svg
   xmlns:dc="http://purl.org/dc/elements/1.1/"
   xmlns:cc="http://creativecommons.org/ns#"
   xmlns:rdf="http://www.w3.org/1999/02/22-rdf-syntax-ns#"
   xmlns:svg="http://www.w3.org/2000/svg"
   xmlns="http://www.w3.org/2000/svg"
   xmlns:sodipodi="http://sodipodi.sourceforge.net/DTD/sodipodi-0.dtd"
   xmlns:inkscape="http://www.inkscape.org/namespaces/inkscape"
   version="1.0"
   width="32"
   height="32"
   id="svg2"
   sodipodi:version="0.32"
   inkscape:version="0.91 r13725"
   sodipodi:docname="musique.svg"
   inkscape:output_extension="org.inkscape.output.svg.inkscape"
   inkscape:export-filename="/home/flavio/projects/minitunes/images/app.png"
   inkscape:export-xdpi="22.5"
   inkscape:export-ydpi="22.5"
   style="enable-background:new">
  <metadata
     id="metadata13">
    <rdf:RDF>
      <cc:Work
         rdf:about="">
        <dc:format>image/svg+xml</dc:format>
        <dc:type
           rdf:resource="http://purl.org/dc/dcmitype/StillImage" />
        <dc:title></dc:title>
      </cc:Work>
    </rdf:RDF>
  </metadata>
  <sodipodi:namedview
     inkscape:window-height="1056"
     inkscape:window-width="1855"
     inkscape:pageshadow="2"
     inkscape:pageopacity="0"
     guidetolerance="10.0"
     gridtolerance="10.0"
     objecttolerance="10.0"
     borderopacity="1.0"
     bordercolor="#666666"
     pagecolor="#9c9c9c"
     id="base"
     showgrid="false"
     inkscape:zoom="30.375"
     inkscape:cx="16"
     inkscape:cy="16"
     inkscape:window-x="65"
     inkscape:window-y="24"
     inkscape:current-layer="svg2"
     showborder="true"
     inkscape:showpageshadow="false"
     inkscape:window-maximized="1"
     inkscape:snap-bbox="true"
     inkscape:bbox-paths="true"
     inkscape:snap-bbox-edge-midpoints="true"
     inkscape:bbox-nodes="true">
    <inkscape:grid
       type="xygrid"
       id="grid3854"
       visible="true"
       enabled="true"
       empspacing="5"
       snapvisiblegridlinesonly="true" />
  </sodipodi:namedview>
  <defs
     id="defs5">
    <filter
       inkscape:collect="always"
       style="color-interpolation-filters:sRGB"
       id="filter4360"
       x="-0.024"
       width="1.048"
       y="-0.024"
       height="1.048">
      <feGaussianBlur
         inkscape:collect="always"
         stdDeviation="0.3"
         id="feGaussianBlur4362" />
    </filter>
    <filter
       inkscape:collect="always"
       style="color-interpolation-filters:sRGB"
       id="filter4397"
       x="-0.052132664"
       width="1.1042653"
       y="-0.044474421"
       height="1.0889488">
      <feGaussianBlur
         inkscape:collect="always"
         stdDeviation="8.3073255"
         id="feGaussianBlur4399" />
    </filter>
  </defs>
  <g
     inkscape:groupmode="layer"
     id="layer1"
     inkscape:label="multiply"
     style="display:inline"
     transform="translate(0,-480)" />
  <circle
     style="opacity:0.33000004;fill:#000000;fill-opacity:1;stroke:none;stroke-width:1;stroke-miterlimit:4;stroke-dasharray:none;filter:url(#filter4360);enable-background:new"
     id="path4272-1"
     cx="16"
     cy="16.280001"
     r="15" />
  <circle
     style="opacity:1;fill:#ffffff;fill-opacity:1;stroke:none;stroke-width:1;stroke-miterlimit:4;stroke-dasharray:none"
     id="path4272"
     cx="16"
     cy="16"
     r="15" />
  <path
     sodipodi:type="inkscape:offset"
     inkscape:radius="0"
     inkscape:original="M 425.65625 22.53125 C 343.76818 34.55012 261.37079 43.309606 179.59375 55.96875 C 167.03048 62.449801 167.37274 78.706055 168.75 90.8125 C 168.24676 175.37554 168.66133 259.9363 168.53125 344.5 C 128.07825 341.06817 83.891689 362.0016 67.96875 400.65625 C 57.889406 425.90206 72.689003 457.69553 98.8125 465.625 C 131.24732 478.09531 169.33134 466.82196 194.03125 443.625 C 211.44335 426.52059 219.31363 401.57495 217.53125 377.46875 C 217.79422 314.85989 217.46015 252.23541 217.6875 189.625 L 217.6875 153.71875 L 397.875 126.8125 C 397.73647 183.67383 398.12633 240.54578 397.65625 297.40625 C 357.0158 294.07486 312.55115 315.29759 297 354.375 C 287.5218 379.52199 302.39018 410.86421 328.3125 418.625 C 361.38816 431.11675 399.9801 419.38227 424.59375 395.3125 C 441.22608 378.3997 448.38917 354.1004 446.84375 330.71875 C 447.34935 274.22037 446.45919 217.71929 447.09375 161.21875 C 447.17595 118.65194 447.75029 75.961236 445.5625 33.46875 C 442.2089 25.964757 433.6033 21.988713 425.65625 22.53125 z "
     style="opacity:0.33;fill:#000000;fill-opacity:1;fill-rule:nonzero;stroke:none;enable-background:new;filter:url(#filter4397)"
     id="path4335-3-6"
     d="M 425.65625,22.53125 C 343.76818,34.55012 261.37079,43.309606 179.59375,55.96875 167.03048,62.449801 167.37274,78.706055 168.75,90.8125 c -0.50324,84.56304 -0.0887,169.1238 -0.21875,253.6875 -40.453,-3.43183 -84.639561,17.5016 -100.5625,56.15625 -10.079344,25.24581 4.720253,57.03928 30.84375,64.96875 32.43482,12.47031 70.51884,1.19696 95.21875,-22 17.4121,-17.10441 25.28238,-42.05005 23.5,-66.15625 0.26297,-62.60886 -0.0711,-125.23334 0.15625,-187.84375 l 0,-35.90625 180.1875,-26.90625 c -0.13853,56.86133 0.25133,113.73328 -0.21875,170.59375 C 357.0158,294.07486 312.55115,315.29759 297,354.375 c -9.4782,25.14699 5.39018,56.48921 31.3125,64.25 33.07566,12.49175 71.6676,0.75727 96.28125,-23.3125 16.63233,-16.9128 23.79542,-41.2121 22.25,-64.59375 0.5056,-56.49838 -0.38456,-112.99946 0.25,-169.5 0.0822,-42.56681 0.65654,-85.257514 -1.53125,-127.75 -3.3536,-7.503993 -11.9592,-11.480037 -19.90625,-10.9375 z"
     transform="matrix(0.04461366,0,0,0.04461366,4.5787866,5.197124)" />
  <path
     sodipodi:type="inkscape:offset"
     inkscape:radius="0"
     inkscape:original="M 425.65625 22.53125 C 343.76818 34.55012 261.37079 43.309606 179.59375 55.96875 C 167.03048 62.449801 167.37274 78.706055 168.75 90.8125 C 168.24676 175.37554 168.66133 259.9363 168.53125 344.5 C 128.07825 341.06817 83.891689 362.0016 67.96875 400.65625 C 57.889406 425.90206 72.689003 457.69553 98.8125 465.625 C 131.24732 478.09531 169.33134 466.82196 194.03125 443.625 C 211.44335 426.52059 219.31363 401.57495 217.53125 377.46875 C 217.79422 314.85989 217.46015 252.23541 217.6875 189.625 L 217.6875 153.71875 L 397.875 126.8125 C 397.73647 183.67383 398.12633 240.54578 397.65625 297.40625 C 357.0158 294.07486 312.55115 315.29759 297 354.375 C 287.5218 379.52199 302.39018 410.86421 328.3125 418.625 C 361.38816 431.11675 399.9801 419.38227 424.59375 395.3125 C 441.22608 378.3997 448.38917 354.1004 446.84375 330.71875 C 447.34935 274.22037 446.45919 217.71929 447.09375 161.21875 C 447.17595 118.65194 447.75029 75.961236 445.5625 33.46875 C 442.2089 25.964757 433.6033 21.988713 425.65625 22.53125 z "
     style="fill:#0096dc;fill-opacity:1;fill-rule:nonzero;stroke:none"
     id="path4335-3"
     d="M 425.65625,22.53125 C 343.76818,34.55012 261.37079,43.309606 179.59375,55.96875 167.03048,62.449801 167.37274,78.706055 168.75,90.8125 c -0.50324,84.56304 -0.0887,169.1238 -0.21875,253.6875 -40.453,-3.43183 -84.639561,17.5016 -100.5625,56.15625 -10.079344,25.24581 4.720253,57.03928 30.84375,64.96875 32.43482,12.47031 70.51884,1.19696 95.21875,-22 17.4121,-17.10441 25.28238,-42.05005 23.5,-66.15625 0.26297,-62.60886 -0.0711,-125.23334 0.15625,-187.84375 l 0,-35.90625 180.1875,-26.90625 c -0.13853,56.86133 0.25133,113.73328 -0.21875,170.59375 C 357.0158,294.07486 312.55115,315.29759 297,354.375 c -9.4782,25.14699 5.39018,56.48921 31.3125,64.25 33.07566,12.49175 71.6676,0.75727 96.28125,-23.3125 16.63233,-16.9128 23.79542,-41.2121 22.25,-64.59375 0.5056,-56.49838 -0.38456,-112.99946 0.25,-169.5 0.0822,-42.56681 0.65654,-85.257514 -1.53125,-127.75 -3.3536,-7.503993 -11.9592,-11.480037 -19.90625,-10.9375 z"
     transform="matrix(0.04461366,0,0,0.04461366,4.5787866,4.9969871)" />
</svg>
